<svg xmlns="http://www.w3.org/2000/svg" width="300" height="253"><path style="stroke:none;fill-rule:nonzero;fill:#000;fill-opacity:1" d="M125.68 11.203C143.61 3.605 163.344.5 182.75 1.832c18.996 1.43 37.672 7.188 54.082 16.902a126.28 126.28 0 0 1 37.703 34.188c11.762 16.07 19.613 35.008 22.582 54.719 2.278 15.625 1.813 31.722-1.922 47.086 2.43 4.761 3.645 10.238 2.825 15.558-.938 8.008-6.063 15.332-13.204 19.043-1.628 1.117-4.039 1.137-5.148 2.914-13.008 20.863-32.23 37.824-54.648 47.914-4.68 2.184-9.551 3.918-14.446 5.551l-1.012.223c-23.566 7.242-49.285 6.988-72.816-.29-17.617-5.581-34.027-15.007-47.574-27.6-12.973-11.974-23.387-26.712-30.293-42.974-3.078-7.132-5.309-14.597-7.125-22.136-3.246-1.989-7.16-2.555-10.899-2.121-7.718.796-15.023 3.59-22.492 5.504 5.325-3.926 11.13-7.196 17.149-9.922-9.563.129-18.938 2.379-28.211 4.53-2.489.618-4.973 1.255-7.43 1.966 9.547-10.227 22.11-17.149 35.059-22.098-4.43-.566-8.918-1.09-13.145-2.61-3.965-1.327-7.66-3.382-10.98-5.917 3.199-.098 6.414.105 9.601-.266 9.848.07 20.188-.46 28.973-5.414 1.613-21.379 8.957-42.293 21.012-60.004C83.93 36.54 103.367 20.523 125.68 11.203Zm0 0"/><path style="stroke:none;fill-rule:nonzero;fill:#f9fcfa;fill-opacity:1" d="M159.977 6.293c15.8-1.621 31.949-.55 47.214 3.977 32.286 9.21 60.16 32.625 74.887 62.816 7.281 14.633 11.52 30.793 12.266 47.125-.106 3.414.508 6.824.058 10.23-.101 6.727-1.004 13.407-2.242 20.012a56.207 56.207 0 0 0-2.754-2.433c1.356-8.715 2.344-17.57 1.778-26.399-.122-2.308-.192-4.613-.422-6.914-1.844-18.324-8.024-36.215-18.032-51.68-10.066-15.707-23.906-28.968-40.015-38.351-16.692-9.727-35.813-15.36-55.14-15.82-2.325-.344-4.68-.09-7.016-.172l-.309.23c-20.29.285-40.367 6.52-57.66 17.055C95.637 36.355 81.352 51.082 71.53 68.387 63.953 81.605 59.06 96.336 57.105 111.44c-.914 1.114-2.265 1.735-3.472 2.473 2.203-22.508 11.148-44.25 25.105-62.012 14.567-18.609 34.676-32.843 57.11-40.261a122.991 122.991 0 0 1 24.129-5.348Zm0 0"/><path style="stroke:none;fill-rule:nonzero;fill:#fcfdfc;fill-opacity:1" d="M165.3 16.023c2.4-1.21 5.735-1.39 7.731.665 1.364 1.23 1.582 3.167 2.035 4.847-1.304.113-2.609.188-3.914.172-.445-.828-.46-2.14-1.492-2.484-.828-.211-1.683.023-2.508.117a31.04 31.04 0 0 0-.12 2.094c2.355.867 5 1.359 6.843 3.203 2.063 1.949 1.902 5.281.668 7.64-1.84 3.465-7.004 3.942-9.875 1.555-1.535-1.453-1.828-3.625-2.145-5.602 1.403 0 2.801 0 4.204-.015.304.851.425 1.805 1.003 2.539.57.86 1.676.523 2.543.57.61-1.074.954-2.347.551-3.558-1.351-1.274-3.36-1.254-4.949-2.086-3.672-1.606-4.063-7.645-.574-9.657Zm0 0"/><path style="stroke:none;fill-rule:nonzero;fill:#fbfdfa;fill-opacity:1" d="M183.691 16.223c2.293-.461 5.16-.395 6.852 1.492 1.394 1.422 1.574 3.539 1.555 5.422a37.112 37.112 0 0 1-3.614-.282c-.394-.867-.629-1.785-.988-2.66-.793-.117-1.738-.77-2.46-.172-.938.43-1.06 1.891-.056 2.32 1.965 1.044 4.2 1.852 5.575 3.716 1.742 2.16 1.226 5.402-.246 7.566-2.371 3.355-8.137 3.18-10.399-.188-1.047-1.554-.972-3.523-1.035-5.308 1.375.164 2.754.355 4.14.43.247 1.062.137 2.328.965 3.152.473.281 1.02.394 1.543.547.27-.149.797-.438 1.063-.59.57-1.012.687-2.16.48-3.293-1.859-1.18-4.14-1.758-5.687-3.371-2.18-2.723-1.23-7.703 2.312-8.781Zm-37.183 2.882c1.707-1.347 4.058-1.68 6.133-1.14 2.43.863 4.058 3.242 4.398 5.754-1.363.347-2.734.683-4.117.89-.215-.675-.422-1.347-.633-2.015-.73-.168-1.46-.328-2.191-.492-.727.507-1.66.914-1.856 1.878.426 2.579.973 5.137 1.578 7.672.328 1.715 2.743 2.27 3.895 1.024.777-.676.484-1.828.644-2.73 1.254-.395 2.532-.79 3.844-.966.883 1.22.809 2.887.453 4.286-.91 2.445-3.445 3.777-5.832 4.39-3.156.442-6.715-1.703-7.207-4.984-.554-2.867-1.144-5.734-1.633-8.613-.398-2.024 1.004-3.809 2.524-4.954Zm64.91 9.774c1.031-2.16 2.992-4.293 5.578-4.184 3.59.024 7.652 2.98 7.047 6.926-.52 2.719-2.09 5.067-3.066 7.625-1.114 2.32-1.926 4.8-3.262 7.008-1.266-.328-2.41-.977-3.598-1.504.297-1.773 1.274-3.305 1.942-4.941 1.093-2.598 2.343-5.125 3.375-7.746.43-.872-.125-1.711-.403-2.524-1.101-.164-2.633-.539-3.226.734-1.88 4.125-3.657 8.301-5.535 12.422-1.536-.152-2.91-.906-4.215-1.664 1.757-4.062 3.597-8.09 5.363-12.152Zm0 0"/><path style="stroke:none;fill-rule:nonzero;fill:#fafdfa;fill-opacity:1" d="M112.852 33.344c1.203-.723 2.394-1.485 3.66-2.102 2.836 4.485 5.277 9.211 8.07 13.723 2.094-1.184 4.129-2.465 6.27-3.555.71 1.18 1.39 2.375 2.015 3.602-3.367 1.816-6.62 3.828-9.965 5.695-3.363-5.785-6.636-11.613-10.05-17.363Zm0 0"/><path style="stroke:none;fill-rule:nonzero;fill:#fbfdfa;fill-opacity:1" d="M229.508 34.781c3.008-2.008 7.617-.843 9.304 2.356.508.847.747 1.812 1.07 2.738-.089 1.305-.269 2.68-1.081 3.758-1.758 2.433-3.39 4.957-5.23 7.324-1.352 1.691-3.735 2.047-5.743 1.59-3.746-.711-6.516-5.04-4.992-8.676.96-1.742 2.25-3.289 3.332-4.965 1.059-1.414 1.894-3.054 3.34-4.125Zm0 0"/><path style="stroke:none;fill-rule:nonzero;fill:#010101;fill-opacity:1" d="M230.523 39.469c.5-.824 1.372-1.25 2.227-1.625.703.308 1.406.629 2.102.972.378 1.051.855 2.293.113 3.313a114.569 114.569 0 0 1-3.45 4.96c-1.1 1.345-3.097 1.411-4.413.36l-.559-1.547c.879-2.394 2.59-4.336 3.98-6.433Zm0 0"/><path style="stroke:none;fill-rule:nonzero;fill:#fbfdfb;fill-opacity:1" d="M101.602 41.844c2.3-2.399 6.68-2.918 9.082-.39 3.187 3.46 6.468 6.839 9.57 10.386-1.008.933-1.988 1.902-3 2.832-3.313-3.156-6.16-6.77-9.457-9.942-.692-.738-1.762-.425-2.649-.453-.57.88-1.199 2.118-.386 3.059 2.937 3.328 6.015 6.535 9.082 9.75-.016.281-.024.57-.035.86-1.043.835-1.985 1.784-2.973 2.687-2.762-3.067-5.664-6.004-8.395-9.094-.765-.781-1.601-1.871-2.843-1.52-1.274.36-2.059 2.09-.98 3.098 3.042 3.414 6.206 6.73 9.355 10.059-.934 1.133-2.055 2.078-3.172 3.027-3.156-3.281-6.207-6.672-9.348-9.969-1.828-1.746-2.148-4.605-1.148-6.863.804-2.367 3.238-3.726 5.652-3.84.344-1.304.676-2.683 1.645-3.687Zm0 0"/><path style="stroke:none;fill-rule:nonzero;fill:#fff;fill-opacity:1" d="M138.531 48.57c16.406-7.539 35.242-9.547 52.883-5.777 17.043 3.566 32.848 12.598 44.719 25.324a87.949 87.949 0 0 1 15.738 23.746c2.64 6.211 4.793 12.68 5.867 19.364-8.867-1.739-17.629-4.102-26.144-7.145-4.043-1.46-8.051-3.078-11.828-5.137a4.718 4.718 0 0 1-1.547-1.246c-1.711-2.031-3.422-4.058-5.137-6.082-.434-.793-1.36-.492-2.078-.527a41.003 41.003 0 0 1-.383-2.485c-1.684-1.718-1.648-4.16-1.726-6.402-.696-6.8-.36-13.793-2.364-20.406-2.629-5.86-8.02-10.598-14.43-11.715-4.53-.707-9.218-.355-13.624.906-8.188 2.297-15.672 6.528-22.77 11.13-6.414 4.218-12.508 8.913-18.402 13.82-7.293.402-14.035 3.5-20.446 6.773-4.199 2.047-8.39 4.312-13.004 5.277-2.296.293-4.605.469-6.863 1.016 8.63-17.746 23.574-32.305 41.54-40.434Zm0 0"/><path style="stroke:none;fill-rule:nonzero;fill:#fbfdfb;fill-opacity:1" d="M244.336 44.566c.781-.789 1.465-1.93 2.73-1.847 2.043 2.492 5.329 4.129 6.196 7.441.297 1.805-.098 3.824-1.39 5.176a157.497 157.497 0 0 1-5.84 6.246c-1.606 1.691-4.227 1.828-6.325 1.156-2.637-1.425-4.66-3.722-6.84-5.742 3.715-4.242 7.711-8.226 11.469-12.43Zm0 0"/><path style="stroke:none;fill-rule:nonzero;fill:#010001;fill-opacity:1" d="M246.746 48.664c1.188.715 2.16 1.781 2.23 3.246-2.105 2.278-4.206 4.567-6.351 6.809l-1.988-.035c-.563-.551-1.13-1.098-1.692-1.637a376.378 376.378 0 0 0 7.801-8.383Zm0 0"/><path style="stroke:none;fill-rule:nonzero;fill:#fff;fill-opacity:1" d="M166.98 64.059c6.458-3.72 13.329-7.235 20.833-8.094 4.757-.64 10.117.765 13.09 4.758 2.425 2.656 2.695 6.414 3.023 9.82.426 3.422.238 6.887.765 10.305-1.332.254-2.648.636-4.004.742-.695-.328-1.386-.649-1.996-1.11-.238-.925-.382-1.875-.527-2.82-5.465 1.016-11.23 2.149-15.703 5.676-2.25 1.719-3.578 4.375-4.043 7.129-.004.832-.023 1.668.035 2.508.758.629 1.844.465 2.754.691-1.273 2.344-2.414 4.8-2.762 7.477v1.855c2.137-.336 3.953-1.558 5.953-2.297l-.343 1.91c-.04.653-.078 1.301-.11 1.95.418 1.03.922 2.02 1.508 2.964 2.879-.628 5.367-2.296 8.117-3.28l-.316 1.597c.113.316.332.941.437 1.254a24.45 24.45 0 0 0 8.258-3.75c3.25-2.09 6.406-4.832 10.363-5.348 2.208 1.39 3.239 4.27 5.57 5.613 3.794 2.29 7.911 3.98 12.036 5.57 8.477 3.153 17.2 5.637 26.047 7.5 4.597 1.008 9.285 1.696 13.746 3.247 2.496.902 5.008 2.43 6.113 4.96 2.074 4.973 2.047 10.856-.398 15.688-2.196 4.047-6.11 7.352-10.688 8.235-18.343 4.246-36.984 7.101-55.633 9.586-5.542.613-11.07 1.28-16.625 1.75-12.804 1.144-25.664 1.789-38.53 1.632-4.216.063-8.466-.035-12.583-1.015-1.613-.614-3.27-1.301-4.433-2.625-1.598-1.551-2.043-3.809-2.45-5.903-.683-3.843-1.593-7.668-1.726-11.586-.14-3.41 1.012-6.664 1.656-9.968 2-9.97 3.566-20.04 6.113-29.899.336-1.207.145-2.484.48-3.691 1.34-5.606 2.923-11.153 4.368-16.73.172-.477.238-1.055.64-1.395 6.673-5.39 13.575-10.54 20.965-14.906Zm0 0"/><path style="stroke:none;fill-rule:nonzero;fill:#fbfdfb;fill-opacity:1" d="M243.867 67.98c5.41-3.918 10.805-7.859 16.223-11.765 1.933 2.793 3.98 5.504 5.945 8.27-1.117.788-2.172 1.68-3.379 2.32-1.328-1.504-2.437-3.188-3.594-4.825-.863.606-1.734 1.196-2.609 1.782.05 1.355 1.172 2.277 1.809 3.39a70.937 70.937 0 0 1-3.13 2.235c-.706-.989-1.39-1.996-2.187-2.91-.922.539-1.785 1.164-2.656 1.773l-.613.762c1.18 1.59 2.355 3.183 3.465 4.832a49.69 49.69 0 0 1-3.391 2.37c-1.922-2.769-4.098-5.37-5.883-8.234Zm0 0"/><path style="stroke:none;fill-rule:nonzero;fill:#fcfdfa;fill-opacity:1" d="M85.738 58.426c.438-.59.793-1.266 1.403-1.7 1.207.54 2.171 1.497 3.246 2.266-.848 1.176-1.711 2.328-2.492 3.551 4.28 3.07 8.503 6.21 12.793 9.262-.637 1.207-1.473 2.285-2.293 3.367-4.364-3.094-8.641-6.305-13.008-9.387-.742 1.098-1.446 2.23-2.301 3.25-1.36-.07-2.305-1.406-3.441-2.055 1.851-2.972 4.117-5.66 6.093-8.554Zm0 0"/><path style="stroke:none;fill-rule:nonzero;fill:#fcfefb;fill-opacity:1" d="M74.871 75.836c.727-1.418 1.461-2.832 2.344-4.156 5.726 3.12 11.601 6.007 17.238 9.289.067 1.57-1.258 2.972-1.996 4.324-2.367-1.133-4.539-2.695-7.016-3.574-.367.804-.742 1.617-1.109 2.437 2.234 1.336 4.711 2.262 6.832 3.805-.684 1.383-1.43 2.734-2.152 4.094-5.875-2.957-11.633-6.153-17.45-9.211-.214-.883.543-1.696.856-2.489.41-.578.578-1.496 1.305-1.753 2.355 1.054 4.535 2.476 6.89 3.543.438-.813.883-1.622 1.356-2.415-2.356-1.32-4.766-2.539-7.098-3.894Zm0 0"/><path style="stroke:none;fill-rule:nonzero;fill:#f6fcf8;fill-opacity:1" d="M251.82 78.043c.524-1.43 2.293-1.516 3.422-.77.492 1.012.531 2.086-.031 3.079-.563.222-1.125.445-1.688.68-1.03-.583-2.558-1.626-1.703-2.989Zm0 0"/><path style="stroke:none;fill-rule:nonzero;fill:#f8fbf9;fill-opacity:1" d="M183.422 87.379c4.258-3.668 9.617-5.524 14.887-7.176l.382.277c.61.461 1.301.782 1.996 1.11-5.855 2.316-11.5 5.14-17.277 7.637a48.51 48.51 0 0 1 .012-1.848Zm0 0"/><path style="stroke:none;fill-rule:nonzero;fill:#fcfdfb;fill-opacity:1" d="M256.734 84.387c.774-1.828 2.532-2.946 4.278-3.711.597 1.379 1.23 2.746 1.82 4.133-1.203.644-2.324 1.597-2.066 3.101.695.176 1.425.79 2.164.414 4.39-1.77 8.586-3.984 12.925-5.87.625 1.46 1.336 2.874 1.922 4.35-3.16 1.528-6.37 2.942-9.53 4.47-2.18.878-4.442 2.183-6.872 1.722-3.727-.621-6.273-5.148-4.64-8.61Zm0 0"/><path style="stroke:none;fill-rule:nonzero;fill:#fff;fill-opacity:1" d="M107.61 94.055c11.093-2.239 20.046-10.618 31.437-11.79-1.317 5.387-2.91 10.708-4.203 16.106-.39 1.692-.324 3.461-.852 5.121-2.96 11.52-4.449 23.352-7.207 34.914-.75 3.473-.332 7.063.328 10.516.328 2.308.817 4.61 1.715 6.773-3.797.16-7.523 1.457-10.758 3.43-3.683 2.172-6.453 5.988-10.898 6.703-5.57.402-10.356-3.18-15.805-3.594-1.976-.007-3.816.98-5.805.903.36-.27.723-.532 1.09-.79 2.785-1.46 5.559-3.152 8.735-3.609 3.879-.441 7.777-.715 11.625-1.355 2.105-.38 4.043-1.375 5.648-2.781 2.113-1.782 5.586-2.168 6.55-5.102.204-2.086-.23-5.457-2.839-5.734-2.226.316-4.058 1.808-5.773 3.16-2.856 2.25-5.434 4.875-8.52 6.828-1.387.957-3.137.68-4.723.703-2.347-.039-4.578-.926-6.906-1.102-3.52.372-6.879 1.575-10.215 2.708-2.554.789-5.164 1.652-7.87 1.515-3.68-.105-7.184-1.445-10.434-3.086 2.234-.074 4.492.125 6.715-.242 7.515-1.082 14.316-4.73 21.64-6.535 2.336-.688 4.852.02 7.153-.88 3.453-1.194 6.71-4.089 7.183-7.874.234-1.469-.344-2.832-1.027-4.082-2.074-1.89-4.965-.746-7.098.414-6.156 3.492-11.215 8.598-17.328 12.156-1.656.942-3.547 1.5-5.461 1.422-4.094-.11-8.016-1.418-12.043-2.043-3.715-.691-7.5-.555-11.258-.406 7.07-3.426 15.137-3.07 22.707-4.457 2.774-.535 5.797-.903 8.063-2.727.902-.648.933-1.847 1.086-2.84-.95-2.671-3.153-5.214-6.176-5.273-4.688.145-8.582 3.113-12.352 5.57-2.605 1.684-5.242 4.118-8.586 3.723-3.425-.465-6.773-1.598-10.265-1.55l-.301-.2c-3.36-.063-6.719.297-10.02.914 2.782-1.742 5.594-3.555 8.782-4.445 3.77-1.102 7.761-.66 11.593-1.356 6.387-1.812 10.5-7.515 16.211-10.558 1.707-.828 3.645-1.52 5.559-1.098 4.816.777 7.68 5.484 12.293 6.754 4.117 1.012 8.426-.555 11.754-2.973 1.808-1.258 3.289-3.062 3.777-5.25-.828-2.312-3.715-2.761-5.851-2.562-3.582.32-5.688 3.61-8.711 5.125-4.508-.496-7.801-3.934-11.934-5.387-2.664-.676-5.75-.352-7.906 1.477-3.438 2.77-7.04 5.543-11.348 6.793-5.004 1.625-10.406.816-15.293-.825 5.11-.52 10.293-1.613 14.723-4.336 5.43-3.242 9.469-9 15.98-10.23 3.621-.945 7.2.68 10.309 2.398 1.969.985 4.105 2.149 6.375 1.715 3.43-.777 5.914-3.43 8.8-5.23 1.372-.887 3.22-.965 4.259-2.344.87-.727.578-1.918.652-2.906-.887-.989-2.098-1.77-3.484-1.5-4.508.39-7.176 4.785-11.372 5.984-1.593.344-3.109-.39-4.597-.855-2.473-.86-5.059-1.493-7.7-1.371-2.413-.122-4.71.714-7.058 1.125 1.105-.977 2.195-2.028 3.582-2.598 3.293-1.496 7.02-.856 10.473-1.621 3.148-.774 5.562-3.059 8.254-4.715 2.816-1.918 5.992-3.32 9.343-3.965 1.832-.45 3.743-.344 5.582-.773Zm0 0"/><path style="stroke:none;fill-rule:nonzero;fill:#eefaf9;fill-opacity:1" d="M186.492 93.887c3.899-2.774 7.649-5.938 12.125-7.762-1.012 1.148-2.152 2.164-3.36 3.09-4.597 3.566-9.26 7.039-14.038 10.363.957-2.492 3.347-3.992 5.273-5.691Zm0 0"/><path style="stroke:none;fill-rule:nonzero;fill:#fdfdfc;fill-opacity:1" d="M202.61 90.578c1.324-.465 2.757-.594 4.136-.27.106 2.512-2.3 3.981-3.902 5.524-4.996 3.992-10.817 6.79-16.711 9.184.347-2.457 1.183-4.797 2.058-7.098 4.637-2.75 9.274-5.625 14.418-7.34Zm0 0"/><path style="stroke:none;fill-rule:nonzero;fill:#fbfefb;fill-opacity:1" d="M271.117 96.938c1.016-1.883 3.235-2.622 5.235-2.844 3.867.054 6.054 4.62 5.168 7.996-.606 2.308-2.844 3.476-4.883 4.289-.356-1.258-.672-2.524-.996-3.785.699-.59 2.015-.848 2.011-1.957.024-.668-.117-1.32-.187-1.98-.652-.2-1.309-.38-1.969-.528l-.625 1.09c-.098 2.738-.273 5.879-2.469 7.84-1.605 1.632-4.101 1.593-6.203 1.28-3.652-.976-5.336-5.526-4.015-8.87.941-2.04 3.101-3 5.09-3.727a64.385 64.385 0 0 1 1.081 4.094c-1.043.648-2.87 1.148-2.578 2.734-.172.836.657 1.227 1.133 1.746 1.055-.113 2.422.051 3.059-1.015.547-2.086.21-4.375 1.148-6.364Zm0 0"/><path style="stroke:none;fill-rule:nonzero;fill:#010102;fill-opacity:1" d="M155.668 117.395c1.242-4.094 5.262-6.489 9.32-6.989 3.235-.195 6.75.309 9.309 2.465 1.758 1.352 2.43 3.559 3.039 5.598.992 0 1.988.023 2.984.094.168-2.622 2.41-4.606 4.739-5.461 1.441-.59 2.816.234 4.074.851 1.074-.52 2.023-1.512 3.316-1.328 1.11-.125 2.223.941 3.274.316 1.562-.867 3.586-1.136 5.148-.12 1.637.765 2.191 2.628 2.621 4.238 3.281-1.149 7.219-1.387 10.113.859a93.125 93.125 0 0 0 2.528-1.18c.61-2.808 3.691-4.652 6.445-3.925 3.047.652 5.016 4.5 3.04 7.171.472 1.625.6 3.36-.02 4.97 1.222 1.218 2.554 2.687 2.27 4.566.226 2.539-1.653 4.558-3.59 5.894 1.242 1.895.476 4.164 1.195 6.191.468 1.95.105 4.204-1.461 5.583-2.153 2.3-5.563 1.96-8.407 2.484-.52-.336-1.039-.668-1.554-.988-2.895 1.363-6.469 1.613-9.133-.414a9.083 9.083 0 0 1-3.691 2.117c-1.415 1.941-3.278 3.89-5.743 4.32-2.386.086-4.047-2.066-4.472-4.227-2.39.75-4.86.41-7.188-.39-2.035 1.633-4.863 1.828-7.277 1.015-1.035 2.02-2.492 3.872-4.57 4.887-4.43 2.219-10.524 1.477-13.704-2.547-2.656-3.28-2.222-8.418.907-11.242-.461-1.02-.82-2.078-1.016-3.172-.625-.187-1.246-.379-1.863-.558-.594.312-1.188.62-1.774.937-3.14.012-6.316-.308-9.39.508-.867-.621-1.903-1.094-2.473-2.031-.539-.961-.426-2.09-.453-3.145-4.016-1.18-5.32-6.797-2.531-9.777 1.726-1.863 4.398-2.168 6.797-2.059 1.515-.738 3.312-1.726 4.933-.597 2.035.89 1.75 3.421 2.793 5.039 1.547 1.035 3.281-.422 4.953-.43-3.367-1.758-4.3-6.063-3.488-9.523Zm0 0"/><path style="stroke:none;fill-rule:nonzero;fill:#f9fcfa;fill-opacity:1" d="M163.262 113.91c2.715-.808 5.836-.746 8.316.73 2.621 1.458 3.469 5.325 1.676 7.739-.746.992-1.992 1.379-3.082 1.848 1.332 3.511 3.387 7.496 7.254 8.628 2.234.61 3.988-1.601 6.156-1.39 1.211.031 1.117 1.543 1.219 2.406-2.004 3.094-6.363 3.629-9.5 2.086-3.14-1.613-5.168-4.773-6.442-7.973-.504-1.277-.91-2.582-1.343-3.879-.2.028-.606.079-.805.106.047.77.098 1.547.152 2.32.492.223.985.446 1.477.672-.125.57-.258 1.149-.403 1.719-.898 1.574-2.261 2.84-3.847 3.703-.453-.43-1.024-.762-1.32-1.324.375-1.055 1.207-1.946 1.246-3.117.062-2.016-.22-4.028-.184-6.04.05-1.199-.8-2.128-1.43-3.042.98-1.329 2.657-1.094 4.106-1.063.144.25.293.5.445.758-.2 1.062-.285 2.137-.324 3.219 1.324-.004 2.934.168 3.797-1.082 1.355-1.512.097-3.86-1.649-4.383-2.691-.918-6.574-.246-7.648 2.734.45 1.684 2.11 2.895 2 4.73-.715.266-1.469.895-2.254.47-2.191-1.133-2.941-3.997-2.23-6.235.554-2.188 2.527-3.738 4.617-4.34Zm0 0"/><path style="stroke:none;fill-rule:nonzero;fill:#f4faf9;fill-opacity:1" d="M197.426 115.39c.71-.261 1.484-.085 2.222-.07.63 1.125 1.04 2.848-.132 3.758-.926.356-2.293.3-2.715-.762-.68-.964-.067-2.164.625-2.925Zm0 0"/><path style="stroke:none;fill-rule:nonzero;fill:#f8fcf9;fill-opacity:1" d="M183.379 118.266c.598-1.278 1.934-1.957 3.164-2.5 1.668 3.812.707 8.125 1.465 12.12.414.489.89.927 1.347 1.38.016.25.04.757.051 1.007-1.617.766-3.449.567-5.18.446-.011-.281-.035-.852-.05-1.137.332-.504.664-1.012.918-1.559-.067-2.75-.442-5.484-.39-8.234-.442-.5-1.599-.633-1.325-1.523Zm6.367-.817c.961-.828 1.938-1.71 3.219-1.972.992 2.21.812 4.699 1.047 7.066.175 2.09-.434 4.582 1.258 6.2h1.687c.223-.266.664-.79.879-1.052.016-1.402.016-2.8-.05-4.199-.411-.101-1.24-.3-1.65-.402.391-1.676 1.884-2.66 3.368-3.278 1.008 2.36.531 4.993 1.02 7.461.496.516.996 1.032 1.5 1.547-.02.227-.051.672-.063.895-1.5.281-3.02.406-4.54.422-.476-.356-.948-.7-1.417-1.051-1.133 2.098-3.899 1.457-5.793 1.043.402-1.117 1.332-2.106 1.18-3.371-.09-2.008-.23-4.02-.328-6.028-.07-.484-.13-.96-.18-1.44-.985-.173-1.106-1.017-1.137-1.84Zm0 0"/><path style="stroke:none;fill-rule:nonzero;fill:#f6faf7;fill-opacity:1" d="M219.46 116.71c.954-1.82 4.38-.968 3.88 1.24-.63 1.085-1.91.558-2.906.616 1.074 1.457 3.14 2.793 2.441 4.887-.828 1.95-3.258 2.11-5.031 2.695-.09.2-.278.598-.371.801 1.918.985 4.035-.554 5.96.383.938.324 1.286 1.332 1.672 2.152-.656 3.211-4.261 4.461-7.171 4.239-1.239-.22-2.875-.395-3.52-1.625-.582-1.121.48-2.5 1.684-2.286 1.047.735 1.949 1.672 3.109 2.25 1.063-.406 2.98-.582 2.633-2.167-.574-.801-1.645-.7-2.496-.63-1.285.102-2.574.102-3.864.075-.335-.332-.664-.668-.992-.996-.008-.43-.008-.852-.008-1.27a87.397 87.397 0 0 1 1.551-1.39c-.59-.672-1.488-1.196-1.644-2.137-.34-1.05.258-2.024.652-2.95 1.414-.769 2.961-1.199 4.55-1.417-.222-.793-.878-1.766-.128-2.47Zm0 0"/><path style="stroke:none;fill-rule:nonzero;fill:#f8fbf9;fill-opacity:1" d="M207.063 120.547c1.125-.703 2.605-1.652 3.902-.777 1.398.949 1.203 2.8 1.344 4.273-.063 1.254 1.289 1.867 1.375 3.082-1.164 1.242-2.32 3.336-4.344 2.586.367-2.43 1.027-5.082-.125-7.402-.707.18-1.406.37-2.11.55-.183.98-.53 1.961-.394 2.973.121 1.348 1.379 2.121 1.992 3.238-1.61.79-3.41.793-5.16.696l-.727-.895c.446-.465.895-.918 1.368-1.355.125-.383.261-.754.39-1.13-.203-1.003-.297-2.019-.351-3.034l-1.383-.262c.008-.715.183-1.399.445-2.05.793-.536 1.578-1.08 2.39-1.595.5.567.845 1.23 1.18 1.914.051-.203.16-.605.208-.812Zm0 0"/><path style="stroke:none;fill-rule:nonzero;fill:#030207;fill-opacity:1" d="M216.898 122.46c.352-1.315 1.883-1.23 2.95-1.058.347.524.625 1.09.824 1.688-.746.45-1.543.793-2.344 1.12-.562-.46-1.879-.737-1.43-1.75Zm0 0"/><path style="stroke:none;fill-rule:nonzero;fill:#f8fbf6;fill-opacity:1" d="M176.387 121.867c2.035-1.004 4.82-.32 5.883 1.758.96 2.094 1.011 4.89-.727 6.594-1.273 1.41-3.453 1.254-5.133.844-3.531-1.551-3.578-7.637-.023-9.196Zm0 0"/><path style="stroke:none;fill-rule:nonzero;fill:#152028;fill-opacity:1" d="M166.71 124.21c.2-.026.61-.077.806-.105.433 1.301.84 2.602 1.347 3.88-.312.312-.625.624-.925.937.144-.57.28-1.145.406-1.715-.496-.227-.989-.453-1.48-.672-.055-.777-.106-1.555-.153-2.324Zm0 0"/><path style="stroke:none;fill-rule:nonzero;fill:#020103;fill-opacity:1" d="M176.957 124.281c.992-1.113 3.063-.394 3.238 1.063.149 1.203.38 2.86-.93 3.539-.913.125-2.14.234-2.566-.801-.562-1.144-.672-2.832.258-3.8Zm0 0"/><path style="stroke:none;fill-rule:nonzero;fill:#f2faf9;fill-opacity:1" d="M147.91 126.023c.664-.75 1.492-1.226 2.516-1.023-.004.844.125 1.848-.696 2.379-.726.176-1.472.187-2.21.254.105 1.773.082 3.55.234 5.32.316.395.637.793.957 1.2-.875 1.187-1.777 2.75-3.496 2.617.305-1.887 1.34-4.008.066-5.758-.754 1.175-2.726 1.004-3.469-.086-1.062-1.211-.84-3.348.524-4.254 1.613-1.172 3.73-.45 5.574-.649Zm0 0"/><path style="stroke:none;fill-rule:nonzero;fill:#030408;fill-opacity:1" d="M142.852 129.68c.191-.75.066-1.758.953-2.078a8.632 8.632 0 0 1 1.824-.188c.039.906.101 1.816.184 2.73-.93-.457-1.965-.394-2.961-.464Zm0 0"/><path style="stroke:none;fill-rule:nonzero;fill:#f2f9f8;fill-opacity:1" d="M149.73 127.375c.34.129 1.016.375 1.36.496.172.965.18 1.953.254 2.938 1.043-.532 2.117-.72 3.144-.043.106.898.2 1.793.27 2.695.281.398.57.8.86 1.207a36.834 36.834 0 0 1-1.614 1.781l-1.332-.262c.488-1.351.863-2.925-.043-4.199-.43.153-.84.36-1.246.567.012.644.035 1.297.082 1.949.332.539.676 1.07 1.035 1.594-1.102.152-2.215.25-3.328.273l-.094-.715c.29-.437.574-.87.848-1.312-.336-1.426-.317-2.895-.32-4.348-1.649-.387-.184-1.723.124-2.621Zm0 0"/><path style="stroke:none;fill-rule:nonzero;fill:#f1fbf9;fill-opacity:1" d="M157.438 130.2c1.417-.282 3.367-.157 3.699 1.6.554 2.009-2.114 1.755-3.367 1.813.066.203.199.61.27.817 1.07-.024 2.058-.496 3.116-.618.356 2.536-4.035 2.918-4.722.668-.836-1.515-.168-3.19 1.004-4.28Zm0 0"/><path style="stroke:none;fill-rule:nonzero;fill:#61a6c3;fill-opacity:1" d="M157.16 131.855c.871-.261 1.75-.503 2.645-.703.164 1.637-1.868 1.805-2.645.703Zm0 0"/><path style="stroke:none;fill-rule:nonzero;fill:#f8fcf9;fill-opacity:1" d="M166.977 134.48c.968.145 1.843-1.101 2.757-.394 1.243 1.043 1.996 2.71 1.938 4.34-.406.34-.875.582-1.336.836-1.168-.977-2.34-1.996-3.797-2.496-.566.199-1.133.406-1.695.617-.074.695-.852 1.629.09 2.043 2.414 1.398 5.355 1.71 7.566 3.527 1.305 1.75 1.762 3.93 1.55 6.082-1.39 5.356-8.878 6.809-12.738 3.262-2.41-1.992-2.433-6.574.47-8.129 1.523-.941 3.741-.93 4.898.578-.215.508-.422 1.02-.63 1.527-1.034.356-2.3.41-3.015 1.34-.355 1.309.172 2.867 1.488 3.407 1.743.77 4.11.593 5.485-.813 1.558-1.777 1.09-4.894-1.02-6.031-2.07-1.098-4.488-1.48-6.445-2.817-1.535-1.062-1.797-3.347-.688-4.808 1.07-1.707 3.2-2.332 5.122-2.07Zm0 0"/><path style="stroke:none;fill-rule:nonzero;fill:#f7faf9;fill-opacity:1" d="M215.473 136.809c1.261-1.13 3.164 0 4.457-1.075l.953-.004c.629.993 1.117 2.075 1.512 3.192-1.344 1.21-2.715-.027-3.899-.774-.215.028-.648.075-.863.102-.004.363-.012.727-.004 1.102 1.523.695 3.387.87 4.598 2.132.921.985.265 2.325-.004 3.446-1.22 1.05-2.778 1.336-4.34 1.058-.563.274-1.156.813-1.817.532-1.105-.93-1.82-2.301-1.773-3.758 1.684-.887 2.984.758 4.48 1.27 1.102.445.86-.927.989-1.52-1.575-.508-3.168-.977-4.64-1.73l-.669-1.079c-.02-1.05.188-2.172 1.02-2.894Zm0 0"/><path style="stroke:none;fill-rule:nonzero;fill:#f8fcf9;fill-opacity:1" d="M197.094 138.375c1.285-.762 2.867-1.586 4.336-.762 2.836 1.598 3.175 5.899 1.351 8.387-.906 1.426-3.043 1.848-4.39.824-.793-.41-.86-1.71-.149-2.226.66-.094 1.34-.137 2.02-.13 1.082-1.038 1.36-2.488.652-3.827l-1.035-.727c-.996.012-2.254.258-2.484 1.414-.168 1.55-.055 3.117.007 4.676-.023.898.891 1.34 1.301 2.039.215.73-.484 1.227-.851 1.75-.895.86-1.852 2.121-3.258 1.746-.563-1.273.234-2.601.195-3.906-.082-2.094-.355-4.176-.3-6.27-.45-.218-.9-.43-1.34-.644a51.706 51.706 0 0 1-.16-1.04c.906-.984 1.898-2.09 3.327-2.199.196.223.586.672.778.895Zm0 0"/><path style="stroke:none;fill-rule:nonzero;fill:#f8fbf9;fill-opacity:1" d="M206.34 137.867c1.902-1.922 5.683-1.554 6.87.996.47.989.763 2.7-.48 3.227-1.539.8-3.296.566-4.957.578.043.238.137.719.184.957 1.832 1.355 3.543-.566 5.457-.5.035.578.156 1.168.082 1.758-.684 1.226-2.18 1.52-3.394 1.953-2.301.035-4.625-1.445-4.989-3.828-.535-1.778-.05-3.793 1.227-5.14Zm0 0"/><path style="stroke:none;fill-rule:nonzero;fill:#f9fdf8;fill-opacity:1" d="M184.438 139.602c1.167-1.778 3.597-1.887 5.449-1.348 2.297.851 2.75 3.601 2.68 5.758-.407 1.258-.926 2.675-2.204 3.297-1.238.722-2.703.445-4.062.496-2.961-1.465-3.895-5.614-1.863-8.203Zm0 0"/><path style="stroke:none;fill-rule:nonzero;fill:#f7fcf8;fill-opacity:1" d="M176.379 139.41c.86-.762 2.02-.945 3.082-1.254.98.344 2.101.54 2.851 1.317.563.754.415 1.93-.468 2.386-1.266-.507-2.516-1.191-3.926-.972-.793 1.406-1.148 3.5.328 4.593 1.574.774 3.059-.816 4.688-.566.03.828.421 1.953-.489 2.469-1.23 1.18-3.074 1.25-4.648.926-3.492-1.266-4.219-6.586-1.418-8.899Zm0 0"/><path style="stroke:none;fill-rule:nonzero;fill:#03080a;fill-opacity:1" d="M208.117 139.137c1.184-.27 2.918-.559 3.004 1.152-1.246.356-2.535.531-3.828.598.262-.59.543-1.172.824-1.75Zm0 0"/><path style="stroke:none;fill-rule:nonzero;fill:#040304;fill-opacity:1" d="M186.781 140.465c.79-.363 1.66-.102 2.485.004.605 1.172 1.09 2.523.554 3.828-.48 1.613-3.117 1.648-3.664.043-.187-1.29-.469-2.903.625-3.875Zm0 0"/><path style="stroke:none;fill-rule:nonzero;fill:#fff;fill-opacity:1" d="M269.453 153.965c3.277-.754 5.656-3.32 8.188-5.281 4.59.48 8.953 2.652 12.168 5.957 2.808 3.136 4.746 7.25 4.566 11.535.266 5.691-2.738 11.168-7.113 14.66-7.39 6.078-19.075 6.203-26.367-.106-4.32-3.605-6.774-9.41-6.067-15.023.356-3.41 1.793-6.637 3.867-9.348 3.602-.71 7.168-1.613 10.758-2.394Zm0 0"/><path style="stroke:none;fill-rule:nonzero;fill:#fafcfa;fill-opacity:1" d="M57.168 157.89c1.348 1.352 2.668 2.731 4.043 4.06.996.85 1.152 2.23 1.613 3.394 6.614 18.719 18.028 35.699 32.871 48.875 13.223 11.789 29.114 20.601 46.176 25.39 19.441 5.512 40.316 5.883 59.93 1 27.804-6.738 52.773-24.191 68.887-47.82 1.363-.156 2.73-.309 4.105-.367-16.39 25.195-42.457 43.95-71.64 51.148-7.016 1.832-14.212 2.926-21.438 3.403-9.895.66-19.863.07-29.617-1.7-19.215-3.468-37.512-11.793-52.848-23.878-20.32-15.946-35.406-38.512-42.082-63.504Zm0 0"/><path style="stroke:none;fill-rule:nonzero;fill:#fff;fill-opacity:1" d="M241.395 159.582c.59-.07 1.203-.289 1.804-.14 3.602 2.933 6.176 7.167 6.75 11.82 1.434 9.086-5.082 18.183-13.71 20.758-5.825 1.894-12.512 1.113-17.598-2.36-3.989-2.594-6.946-6.765-7.895-11.45-1.11-4.698-.012-9.804 2.606-13.815.32-.692 1.156-.606 1.78-.723 8.786-1.149 17.532-2.586 26.263-4.09Zm-121.387 14.945c1.902-5.918 6.555-11.078 12.535-12.992.82 2.547 2.828 4.594 5.39 5.399 5.641 1.918 11.7 1.148 17.547 1.32 2.875 4.246 4.372 9.594 3.293 14.687-1.523 9.032-10.062 16.145-19.183 16.137-6.637.324-13.29-3.004-17.016-8.512-3.207-4.617-4.078-10.64-2.566-16.039Zm50.226-6.672c9.743-.437 19.485-1.14 29.172-2.32 3.43 3.488 5.633 8.278 5.434 13.227-.05 5.82-3.25 11.367-7.973 14.683-4.441 3.176-10.23 4.43-15.578 3.25-6.934-1.37-12.836-6.89-14.473-13.804-.43-3.098-.472-6.313.461-9.325.696-2.043 1.797-3.902 2.957-5.71Zm0 0"/><path style="stroke:none;fill-rule:nonzero;fill:#fafcfb;fill-opacity:1" d="M109.816 171.746c.72-.36 1.45-.707 2.18-1.062-1.644 3.992-2.11 8.343-1.89 12.62a114.316 114.316 0 0 1-7.938-10.331c2.61.105 5.21-.258 7.648-1.227Zm0 0"/><path style="stroke:none;fill-rule:nonzero;fill:#fbfdfb;fill-opacity:1" d="M88.965 187.086c3.762-2.344 7.293-5.05 11.082-7.36.894 1.317 1.777 2.637 2.59 4.008-3.418 2.227-6.762 4.559-10.18 6.778-1.613.984-3.398 2.008-5.363 1.77-3.492-.118-6.285-3.72-5.746-7.13.382-2.09 1.87-3.93 3.812-4.797.75 1.192 1.617 2.305 2.34 3.516-.676 1-2.094 1.914-1.473 3.297.746 1.059 2.059.418 2.938-.082Zm0 0"/><path style="stroke:none;fill-rule:nonzero;fill:#fcfdfb;fill-opacity:1" d="M99.46 191.035c1.474-1.379 3.153-3.035 5.356-2.785 3.352.457 6.086 3.414 6.614 6.715.172 2.02-1.067 3.8-2.57 5.012-3.337 2.96-6.419 6.207-9.868 9.039-.863-.883-1.734-1.75-2.594-2.633 1.586-2.117 3.727-3.754 5.684-5.516a63.35 63.35 0 0 0-3.031-3.43c-2.086 1.586-3.856 3.543-5.852 5.235-.902-.805-1.758-1.664-2.605-2.527-.02-.168-.055-.512-.078-.684 2.91-2.883 6.035-5.543 8.945-8.426Zm0 0"/><path style="stroke:none;fill-rule:nonzero;fill:#fff;fill-opacity:1" d="M179.863 204.129c10.602 1.367 21.723-4.488 26.461-14.11 3.035 4.114 7.418 7.168 12.285 8.7-.011.097-.05.297-.066.394-16.375 10.102-36.172 14.52-55.262 12.075-7.23-.91-14.375-2.7-21.113-5.497 7.828-1.566 14.703-6.925 18.336-14.02 4.008 6.907 11.43 11.657 19.36 12.458Zm0 0"/><path style="stroke:none;fill-rule:nonzero;fill:#020304;fill-opacity:1" d="M103.809 192.79c1.765-.114 3.8 1.538 3.093 3.425-.62.742-1.386 1.344-2.117 1.976a52.151 52.151 0 0 1-3.113-3.257c.707-.715 1.422-1.43 2.137-2.145Zm0 0"/><path style="stroke:none;fill-rule:nonzero;fill:#fbfdfb;fill-opacity:1" d="M115.906 196.813c1.094.722 2.133 1.53 3.192 2.316-1.395 3.254-2.711 6.543-4.215 9.746l-.219 1.2c2.957-2.587 6.059-4.997 9.09-7.493a59.064 59.064 0 0 0 3.094 2.379c-5.266 4.453-10.692 8.719-16 13.129a141.103 141.103 0 0 0-3.035-2.238c2.652-6.368 5.43-12.676 8.093-19.04Zm0 0"/><path style="stroke:none;fill-rule:nonzero;fill:#fbfdf9;fill-opacity:1" d="M212.688 210.418c3.699-2.07 7.292-4.324 10.906-6.535a45.948 45.948 0 0 1 2.101 3.57c-1.172.715-2.402 1.34-3.52 2.137.102.61.43 1.14.743 1.668 2.348 3.902 4.766 7.77 7.035 11.73.106.075.324.223.43.297a61.434 61.434 0 0 0-3.469 2.18c-3.101-4.363-5.508-9.184-8.45-13.653-1.257.731-2.487 1.512-3.784 2.172-.664-1.195-1.336-2.379-1.993-3.566Zm0 0"/><path style="stroke:none;fill-rule:nonzero;fill:#fbfdfa;fill-opacity:1" d="M129.637 208.352c3.746-1.106 8.34 1.27 9.273 5.152.375 2.05-.867 3.851-1.726 5.601-1.758 3.57-3.625 7.075-5.434 10.618-1.215-.532-2.39-1.149-3.547-1.786 1.164-2.37 2.371-4.707 3.55-7.066-1.37-.695-2.69-1.539-4.163-2.008-1.09 2.297-2.367 4.496-3.422 6.813-1.266-.356-2.434-.961-3.613-1.52.09-1.066.562-2.031 1.062-2.957 1.606-3.187 3.309-6.328 4.871-9.539.633-1.422 1.59-2.82 3.149-3.308Zm0 0"/><path style="stroke:none;fill-rule:nonzero;fill:#020304;fill-opacity:1" d="M130.672 212.855c.266-.105.785-.3 1.043-.406 1.238.262 3.058.813 3.035 2.371-.3.993-.86 1.88-1.34 2.785-1.375-.671-2.746-1.343-4.086-2.082.43-.898.88-1.789 1.348-2.668Zm0 0"/><path style="stroke:none;fill-rule:nonzero;fill:#fcfefc;fill-opacity:1" d="M198.48 215.469c3.274-.906 6.52-3.508 10.032-2.203 3.375.972 5.297 5.23 3.687 8.382-1.02 2.055-3.058 3.297-5.152 4.032.871 2.32 1.824 4.613 2.605 6.972-1.132.496-2.28.938-3.398 1.453-.277.012-.559.02-.832.036-1.852-4.73-3.621-9.496-5.453-14.235-.559-1.457-1.266-2.879-1.489-4.437Zm0 0"/><path style="stroke:none;fill-rule:nonzero;fill:#fafcf9;fill-opacity:1" d="M145.012 214.36c2.199-.657 4.648-.188 6.554 1.066 2.051 1.601 2.45 4.547 1.707 6.918a51.123 51.123 0 0 1-3.59-1.051c-.124-.992.09-2.395-1.003-2.918-.664-.484-1.504-.336-2.258-.387-.234.563-.461 1.133-.684 1.703 2.082 1.852 4.907 3.121 5.969 5.903 1.176 3.578-1.383 7.77-5.07 8.476a55.61 55.61 0 0 0-1.61-.02c-1.902-.476-4.035-1.152-5.066-2.98-1.098-1.773-.774-3.96-.484-5.914 1.359.293 2.722.598 4.03 1.09.095 1.316-.062 2.742.927 3.781.484 0 1.441.004 1.921.004.625-.87 1.399-1.855 1.25-2.992-1.468-1.996-4.113-2.785-5.367-4.976-1.136-2.731-.023-6.461 2.774-7.704Zm0 0"/><path style="stroke:none;fill-rule:nonzero;fill:#fbfefa;fill-opacity:1" d="M190.91 216.734c1.469-.308 2.942-.629 4.43-.84 1.347 6.528 2.488 13.098 3.87 19.618-1.21.289-2.425.55-3.655.742-.149.094-.45.281-.598.379-.602-1.637-.824-3.367-1.176-5.055-.957-4.95-1.933-9.89-2.87-14.844Zm0 0"/><path style="stroke:none;fill-rule:nonzero;fill:#020204;fill-opacity:1" d="M204.094 218.078c1.199-.496 2.476-.855 3.785-.578.516.926.906 2.016.437 3.05-.785.766-1.875 1.071-2.902 1.345-.45-1.274-.934-2.532-1.32-3.817Zm0 0"/><path style="stroke:none;fill-rule:nonzero;fill:#fcfefd;fill-opacity:1" d="M158.703 220.27c2.152-3.368 7.606-3.833 10.344-.922.836.808 1.223 1.933 1.691 2.968-.004 1.055-.008 2.114-.027 3.176-1.375.051-2.754-.078-4.121-.219-.016-.71-.031-1.421-.028-2.12-.906-.985-2.296-1.56-3.578-.965-1.132.804-.933 2.332-1.195 3.539-.2 1.972-.68 3.918-.664 5.921.172.254.527.766.7 1.02 1.054.621 2.234.484 3.304-.031.297-.707.594-1.407.883-2.11 1.36.149 2.715.364 4.078.512-.004 2.04-.688 4.344-2.602 5.371-2.98 1.613-7.273 1.363-9.425-1.508-1.735-1.91-1.317-4.664-.883-6.976.554-2.543.527-5.238 1.523-7.656Zm0 0"/><path style="stroke:none;fill-rule:nonzero;fill:#fdfefc;fill-opacity:1" d="M173.95 218.371a56.268 56.268 0 0 1 7.859-.555c1.34-.046 2.55.594 3.703 1.207 1.898 2.329 2.246 5.754.812 8.399-.465.922-1.308 1.582-1.797 2.488 1.102 2.582 2.782 4.88 4.059 7.387-1.488.023-2.965.16-4.445.258-1.66-2.493-2.985-5.203-4.825-7.567.024 2.657.485 5.282.54 7.942-1.407.12-2.801.316-4.211.363-.176-1.422-.223-2.856-.391-4.273-.277-3.41-.586-6.817-.895-10.223-.207-1.809-.289-3.617-.41-5.426Zm0 0"/><path style="stroke:none;fill-rule:nonzero;fill:#010204;fill-opacity:1" d="M178.668 221.996c1.437-.437 2.914-.184 4.152.649.164.554.34 1.125.52 1.683-.356.664-.63 1.465-1.332 1.844-.946.281-1.922.437-2.895.594-.32-1.575-.43-3.168-.445-4.77Zm0 0"/></svg>