<svg xmlns="http://www.w3.org/2000/svg" width="50" height="50"><path style="stroke:none;fill-rule:nonzero;fill:#8a744e;fill-opacity:1" d="M43.242 11.137a2.09 2.09 0 0 0-1.574-.719h-28.79l-.405-2.426a2.087 2.087 0 0 0-2.055-1.742H5.73c-1.152 0-2.085.93-2.085 2.082 0 1.152.933 2.086 2.085 2.086h2.922l3.875 23.258.094.258.113.312.25.375.196.234.402.27.234.137c.243.097.496.156.766.156H37.5a2.082 2.082 0 0 0 2.082-2.086c0-1.152-.93-2.082-2.082-2.082H16.348l-.344-2.082h23.578c1.04 0 1.918-.766 2.063-1.79l2.085-14.581a2.08 2.08 0 0 0-.488-1.66Zm-3.976 3.445-.594 4.168H31.25v-4.168Zm-10.098 0v4.168h-6.25v-4.168Zm0 6.25V25h-6.25v-4.168Zm-8.336-6.25v4.168h-6.25l-.309.063-.703-4.231Zm-6.219 6.25h6.219V25h-5.527ZM31.25 25v-4.168h7.121L37.777 25ZM20.832 40.625a3.124 3.124 0 1 1-6.248.002 3.124 3.124 0 0 1 6.248-.002ZM39.582 40.625a3.124 3.124 0 1 1-6.248.002 3.124 3.124 0 0 1 6.248-.002Zm0 0"/></svg>